<?xml version="1.0" encoding="UTF-8"?>
<!DOCTYPE svg PUBLIC "-//W3C//DTD SVG 1.1//EN" "http://www.w3.org/Graphics/SVG/1.1/DTD/svg11.dtd">
<svg xmlns="http://www.w3.org/2000/svg" version="1.1" width="1731px" height="336px" style="shape-rendering:geometricPrecision; text-rendering:geometricPrecision; image-rendering:optimizeQuality; fill-rule:evenodd; clip-rule:evenodd" xmlns:xlink="http://www.w3.org/1999/xlink">
<g><path style="opacity:0.773" fill="#4e47e6" d="M 172.5,17.5 C 155.058,20.2127 137.391,22.2127 119.5,23.5C 120.635,21.9122 121.969,21.5788 123.5,22.5C 130.877,20.1334 138.377,18.4667 146,17.5C 154.65,16.5242 163.484,16.5242 172.5,17.5 Z"/></g>
<g><path style="opacity:0.972" fill="#2562eb" d="M 172.5,17.5 C 232.11,22.4801 274.943,52.4801 301,107.5C 324.584,173.649 311.417,231.149 261.5,280C 222.72,313.445 178.387,324.445 128.5,313C 124.305,307.917 124.639,303.25 129.5,299C 195.201,310.219 245.368,287.719 280,231.5C 302.865,185.614 301.865,140.281 277,95.5C 265.233,77.1982 250.067,62.3648 231.5,51C 229.235,49.8822 226.901,49.0488 224.5,48.5C 220.47,45.5256 215.97,43.1923 211,41.5C 210.667,41.8333 210.333,42.1667 210,42.5C 206.884,40.1934 203.384,38.8601 199.5,38.5C 153.815,27.0578 112.482,35.8912 75.5,65C 61.6476,76.8782 50.8142,91.0448 43,107.5C 40.3981,111.212 36.8981,112.378 32.5,111C 28.1392,108.774 26.6392,105.274 28,100.5C 47.693,61.9723 78.193,36.3056 119.5,23.5C 137.391,22.2127 155.058,20.2127 172.5,17.5 Z"/></g>
<g><path style="opacity:0.004" fill="#0000ff" d="M 199.5,38.5 C 198.833,39.1667 198.833,39.1667 199.5,38.5 Z"/></g>
<g><path style="opacity:0.004" fill="#0000ff" d="M 224.5,48.5 C 223.833,49.1667 223.833,49.1667 224.5,48.5 Z"/></g>
<g><path style="opacity:0.972" fill="#2462ea" d="M 959.5,73.5 C 973.397,71.6072 986.397,74.1072 998.5,81C 1007.42,88.4217 1012.59,97.9217 1014,109.5C 1014.5,120.161 1014.67,130.828 1014.5,141.5C 1004.83,141.5 995.167,141.5 985.5,141.5C 985.666,132.494 985.5,123.494 985,114.5C 982.128,102.977 974.961,99.1439 963.5,103C 959.99,105.169 957.823,108.336 957,112.5C 956.333,152.167 956.333,191.833 957,231.5C 960.682,241.182 967.515,244.348 977.5,241C 982.369,238.749 984.869,234.915 985,229.5C 985.5,218.172 985.667,206.838 985.5,195.5C 995.167,195.5 1004.83,195.5 1014.5,195.5C 1014.67,208.504 1014.5,221.504 1014,234.5C 1010.94,254.556 999.444,266.39 979.5,270C 965.407,272.315 952.407,269.648 940.5,262C 932.276,254.69 927.442,245.523 926,234.5C 925.333,192.833 925.333,151.167 926,109.5C 929.12,89.8837 940.287,77.8837 959.5,73.5 Z"/></g>
<g><path style="opacity:0.981" fill="#2462ea" d="M 1528.5,73.5 C 1541.88,71.8437 1554.55,74.0104 1566.5,80C 1576.52,86.8533 1582.35,96.3533 1584,108.5C 1585.1,129.643 1585.6,150.81 1585.5,172C 1585.6,193.19 1585.1,214.357 1584,235.5C 1580.5,255 1569,266.5 1549.5,270C 1530.02,273.603 1513.85,268.103 1501,253.5C 1497.25,247.677 1494.92,241.343 1494,234.5C 1493.33,192.833 1493.33,151.167 1494,109.5C 1497.25,89.417 1508.75,77.417 1528.5,73.5 Z M 1534.5,101.5 C 1546.62,100.128 1553.12,105.462 1554,117.5C 1554.67,153.833 1554.67,190.167 1554,226.5C 1553.98,236.545 1548.98,241.878 1539,242.5C 1531.68,242.177 1527.01,238.51 1525,231.5C 1524.33,191.5 1524.33,151.5 1525,111.5C 1527.02,106.98 1530.19,103.647 1534.5,101.5 Z"/></g>
<g><path style="opacity:0.971" fill="#2561eb" d="M 96.5,73.5 C 125.502,73.3334 154.502,73.5 183.5,74C 207.91,75.3379 225.076,87.5045 235,110.5C 243.024,139.938 234.191,162.772 208.5,179C 202.81,181.924 196.81,183.257 190.5,183C 184.195,180.721 182.195,176.387 184.5,170C 191.084,166.67 197.751,163.337 204.5,160C 221.895,143.615 224.062,125.448 211,105.5C 204.297,98.5647 196.13,94.3981 186.5,93C 159.833,92.3333 133.167,92.3333 106.5,93C 105.584,93.3742 104.75,93.8742 104,94.5C 102.346,133.749 102.012,173.082 103,212.5C 104.674,216.153 107.34,217.487 111,216.5C 119.442,219.472 127.275,223.638 134.5,229C 152.094,248.29 151.761,267.29 133.5,286C 118.762,295.832 102.762,298.166 85.5,293C 79.0675,290.037 73.2341,286.203 68,281.5C 66.0717,274.714 68.2383,270.714 74.5,269.5C 81.2013,273.181 88.2013,276.348 95.5,279C 108.16,281.716 118.66,278.216 127,268.5C 133.074,254.068 128.907,243.568 114.5,237C 108.548,235.209 102.548,233.542 96.5,232C 88.0607,226.706 83.7273,219.039 83.5,209C 84.0085,170.508 84.0085,131.175 83.5,91C 82.8052,81.2195 87.1386,75.3861 96.5,73.5 Z"/></g>
<g><path style="opacity:0.976" fill="#2462ea" d="M 346.5,75.5 C 361.837,75.3334 377.17,75.5001 392.5,76C 405.86,75.3705 417.36,79.5371 427,88.5C 430.28,92.6581 432.613,97.3247 434,102.5C 437.264,118.178 437.264,133.844 434,149.5C 431.417,159.085 425.584,165.918 416.5,170C 427.467,173.975 433.633,181.809 435,193.5C 436.251,214.801 436.918,236.134 437,257.5C 437.392,260.627 438.225,263.627 439.5,266.5C 428.854,267.499 418.187,267.832 407.5,267.5C 407.322,264.784 406.822,262.117 406,259.5C 405.667,240.5 405.333,221.5 405,202.5C 404.911,194.467 401.078,189.3 393.5,187C 388.177,186.501 382.844,186.334 377.5,186.5C 377.5,213.5 377.5,240.5 377.5,267.5C 367.167,267.5 356.833,267.5 346.5,267.5C 346.5,203.5 346.5,139.5 346.5,75.5 Z M 377.5,104.5 C 398.671,100.336 408.004,109.003 405.5,130.5C 407.917,151.75 398.584,160.75 377.5,157.5C 377.5,139.833 377.5,122.167 377.5,104.5 Z"/></g>
<g><path style="opacity:0.976" fill="#2462ea" d="M 718.5,75.5 C 733.837,75.3334 749.17,75.5001 764.5,76C 777.86,75.3705 789.36,79.5371 799,88.5C 802.28,92.6581 804.613,97.3247 806,102.5C 809.264,118.178 809.264,133.844 806,149.5C 803.417,159.085 797.584,165.918 788.5,170C 799.467,173.975 805.633,181.809 807,193.5C 808.251,214.801 808.918,236.134 809,257.5C 809.392,260.627 810.225,263.627 811.5,266.5C 800.854,267.499 790.187,267.832 779.5,267.5C 779.322,264.784 778.822,262.117 778,259.5C 777.667,240.5 777.333,221.5 777,202.5C 776.911,194.467 773.078,189.3 765.5,187C 760.177,186.501 754.844,186.334 749.5,186.5C 749.5,213.5 749.5,240.5 749.5,267.5C 739.167,267.5 728.833,267.5 718.5,267.5C 718.5,203.5 718.5,139.5 718.5,75.5 Z M 749.5,104.5 C 770.671,100.336 780.004,109.003 777.5,130.5C 779.917,151.75 770.584,160.75 749.5,157.5C 749.5,139.833 749.5,122.167 749.5,104.5 Z"/></g>
<g><path style="opacity:0.976" fill="#2462ea" d="M 1604.5,75.5 C 1619.84,75.3334 1635.17,75.5001 1650.5,76C 1663.86,75.3705 1675.36,79.5371 1685,88.5C 1688.28,92.6581 1690.61,97.3247 1692,102.5C 1695.26,118.178 1695.26,133.844 1692,149.5C 1689.42,159.085 1683.58,165.918 1674.5,170C 1685.47,173.975 1691.63,181.809 1693,193.5C 1694.25,214.801 1694.92,236.134 1695,257.5C 1695.39,260.627 1696.23,263.627 1697.5,266.5C 1686.85,267.499 1676.19,267.832 1665.5,267.5C 1665.32,264.784 1664.82,262.117 1664,259.5C 1663.67,240.5 1663.33,221.5 1663,202.5C 1662.91,194.467 1659.08,189.3 1651.5,187C 1646.18,186.501 1640.84,186.334 1635.5,186.5C 1635.5,213.5 1635.5,240.5 1635.5,267.5C 1625.17,267.5 1614.83,267.5 1604.5,267.5C 1604.5,203.5 1604.5,139.5 1604.5,75.5 Z M 1635.5,104.5 C 1656.67,100.336 1666,109.003 1663.5,130.5C 1665.92,151.75 1656.58,160.75 1635.5,157.5C 1635.5,139.833 1635.5,122.167 1635.5,104.5 Z"/></g>
<g><path style="opacity:0.976" fill="#2562e9" d="M 456.5,75.5 C 484.167,75.5 511.833,75.5 539.5,75.5C 539.5,85.1667 539.5,94.8333 539.5,104.5C 522.167,104.5 504.833,104.5 487.5,104.5C 487.5,120.833 487.5,137.167 487.5,153.5C 501.167,153.5 514.833,153.5 528.5,153.5C 528.818,163.083 528.485,172.583 527.5,182C 514.171,182.5 500.837,182.667 487.5,182.5C 487.5,201.5 487.5,220.5 487.5,239.5C 504.833,239.5 522.167,239.5 539.5,239.5C 539.5,248.833 539.5,258.167 539.5,267.5C 511.833,267.5 484.167,267.5 456.5,267.5C 456.5,203.5 456.5,139.5 456.5,75.5 Z"/></g>
<g><path style="opacity:0.974" fill="#2462ea" d="M 555.5,75.5 C 574.862,75.1395 594.195,75.6395 613.5,77C 632.567,80.734 643.4,92.234 646,111.5C 646.667,151.833 646.667,192.167 646,232.5C 643.4,251.766 632.567,263.266 613.5,267C 594.17,267.5 574.836,267.667 555.5,267.5C 555.5,203.5 555.5,139.5 555.5,75.5 Z M 586.5,104.5 C 593.175,104.334 599.842,104.5 606.5,105C 610.333,106.167 612.833,108.667 614,112.5C 615.149,132.271 615.649,152.104 615.5,172C 615.649,191.896 615.149,211.729 614,231.5C 612.73,235.77 609.896,238.27 605.5,239C 599.175,239.5 592.842,239.666 586.5,239.5C 586.5,194.5 586.5,149.5 586.5,104.5 Z"/></g>
<g><path style="opacity:0.969" fill="#2462ea" d="M 665.5,75.5 C 675.833,75.5 686.167,75.5 696.5,75.5C 696.5,139.5 696.5,203.5 696.5,267.5C 686.167,267.5 675.833,267.5 665.5,267.5C 665.5,203.5 665.5,139.5 665.5,75.5 Z"/></g>
<g><path style="opacity:0.976" fill="#2562e9" d="M 828.5,75.5 C 856.167,75.5 883.833,75.5 911.5,75.5C 911.5,85.1667 911.5,94.8333 911.5,104.5C 894.167,104.5 876.833,104.5 859.5,104.5C 859.5,120.833 859.5,137.167 859.5,153.5C 873.167,153.5 886.833,153.5 900.5,153.5C 900.818,163.083 900.485,172.583 899.5,182C 886.171,182.5 872.837,182.667 859.5,182.5C 859.5,201.5 859.5,220.5 859.5,239.5C 876.833,239.5 894.167,239.5 911.5,239.5C 911.5,248.833 911.5,258.167 911.5,267.5C 883.833,267.5 856.167,267.5 828.5,267.5C 828.5,203.5 828.5,139.5 828.5,75.5 Z"/></g>
<g><path style="opacity:0.969" fill="#2462ea" d="M 1024.5,75.5 C 1055.83,75.5 1087.17,75.5 1118.5,75.5C 1118.5,85.1667 1118.5,94.8333 1118.5,104.5C 1107.83,104.5 1097.17,104.5 1086.5,104.5C 1086.5,158.833 1086.5,213.167 1086.5,267.5C 1076.17,267.5 1065.83,267.5 1055.5,267.5C 1055.5,213.167 1055.5,158.833 1055.5,104.5C 1045.17,104.5 1034.83,104.5 1024.5,104.5C 1024.5,94.8333 1024.5,85.1667 1024.5,75.5 Z"/></g>
<g><path style="opacity:0.969" fill="#2462ea" d="M 1131.5,75.5 C 1141.83,75.5 1152.17,75.5 1162.5,75.5C 1162.5,139.5 1162.5,203.5 1162.5,267.5C 1152.17,267.5 1141.83,267.5 1131.5,267.5C 1131.5,203.5 1131.5,139.5 1131.5,75.5 Z"/></g>
<g><path style="opacity:0.977" fill="#2462ea" d="M 1183.5,75.5 C 1196.41,75.1776 1209.25,75.5109 1222,76.5C 1231.33,113.167 1240.67,149.833 1250,186.5C 1250.5,149.502 1250.67,112.502 1250.5,75.5C 1259.83,75.5 1269.17,75.5 1278.5,75.5C 1278.5,139.5 1278.5,203.5 1278.5,267.5C 1267.41,268.13 1256.58,267.463 1246,265.5C 1234.33,220.5 1222.67,175.5 1211,130.5C 1210.5,176.165 1210.33,221.832 1210.5,267.5C 1201.5,267.5 1192.5,267.5 1183.5,267.5C 1183.5,203.5 1183.5,139.5 1183.5,75.5 Z"/></g>
<g><path style="opacity:0.977" fill="#2462ea" d="M 1323.5,75.5 C 1337.5,75.5 1351.5,75.5 1365.5,75.5C 1375.35,139.444 1385.69,203.277 1396.5,267C 1386.17,267.667 1375.83,267.667 1365.5,267C 1363.5,255 1361.5,243 1359.5,231C 1348.51,230.5 1337.51,230.333 1326.5,230.5C 1324.72,242.819 1323.06,255.152 1321.5,267.5C 1311.83,267.5 1302.17,267.5 1292.5,267.5C 1302.62,203.463 1312.95,139.463 1323.5,75.5 Z M 1342.5,111.5 C 1347.56,141.931 1351.89,172.598 1355.5,203.5C 1347.17,203.5 1338.83,203.5 1330.5,203.5C 1334.66,172.854 1338.66,142.187 1342.5,111.5 Z"/></g>
<g><path style="opacity:0.969" fill="#2462ea" d="M 1389.5,75.5 C 1420.83,75.5 1452.17,75.5 1483.5,75.5C 1483.5,85.1667 1483.5,94.8333 1483.5,104.5C 1472.83,104.5 1462.17,104.5 1451.5,104.5C 1451.5,158.833 1451.5,213.167 1451.5,267.5C 1441.17,267.5 1430.83,267.5 1420.5,267.5C 1420.5,213.167 1420.5,158.833 1420.5,104.5C 1410.17,104.5 1399.83,104.5 1389.5,104.5C 1389.5,94.8333 1389.5,85.1667 1389.5,75.5 Z"/></g>
<g><path style="opacity:0.916" fill="#64728d" d="M 23.5,118.5 C 32.1523,117.986 35.6523,121.986 34,130.5C 27.9935,136.33 22.9935,135.663 19,128.5C 18.3333,127.167 18.3333,125.833 19,124.5C 20.332,122.34 21.832,120.34 23.5,118.5 Z"/></g>
<g><path style="opacity:0.957" fill="#64738c" d="M 131.5,170.5 C 125.23,160.224 126.563,151.057 135.5,143C 137.717,141.725 140.051,140.725 142.5,140C 156.902,139.052 171.235,139.385 185.5,141C 190.726,146.079 190.726,151.079 185.5,156C 180.028,157.092 174.528,157.926 169,158.5C 162.201,157.968 155.701,157.802 149.5,158C 149.043,158.414 148.709,158.914 148.5,159.5C 149.531,160.7 150.365,162.034 151,163.5C 169.14,181.64 187.306,199.806 205.5,218C 207.167,219 208.833,220 210.5,221C 215.5,221.667 220.5,221.667 225.5,221C 223,218.5 220.5,216 218,213.5C 217.056,210.653 217.556,208.153 219.5,206C 218.833,205.667 218.167,205.333 217.5,205C 221.262,202.844 225.262,202.177 229.5,203C 236.618,210.448 244.118,217.615 252,224.5C 254.521,227.348 254.854,230.348 253,233.5C 246.198,241.303 239.031,248.803 231.5,256C 222.686,259.525 218.186,256.692 218,247.5C 219.822,244.679 221.989,242.179 224.5,240C 218.833,239.667 213.167,239.333 207.5,239C 204.363,238.399 201.363,237.399 198.5,236C 176.02,214.354 153.687,192.521 131.5,170.5 Z"/></g>
<g><path style="opacity:0.909" fill="#64728d" d="M 19.5,141.5 C 27.6965,141.529 30.8631,145.529 29,153.5C 24.4276,158.812 19.7609,158.812 15,153.5C 13.7772,148.34 15.2772,144.34 19.5,141.5 Z"/></g>
<g><path style="opacity:0.927" fill="#64718f" d="M 20.5,165.5 C 28.5493,167.316 30.8827,171.983 27.5,179.5C 23.6768,183.302 19.6768,183.468 15.5,180C 11.9414,173.296 13.6081,168.462 20.5,165.5 Z"/></g>
<g><path style="opacity:0.004" fill="#0000ff" d="M 131.5,170.5 C 130.833,171.167 130.833,171.167 131.5,170.5 Z"/></g>
<g><path style="opacity:0.004" fill="#0000ff" d="M 148.5,189.5 C 149.833,190.167 149.833,190.167 148.5,189.5 Z"/></g>
<g><path style="opacity:0.921" fill="#64738b" d="M 21.5,190.5 C 30.1523,189.986 33.6523,193.986 32,202.5C 24.6524,208.695 19.4858,207.195 16.5,198C 17.3243,194.827 18.9909,192.327 21.5,190.5 Z"/></g>
<g><path style="opacity:0.909" fill="#65728d" d="M 30.5,213.5 C 38.7165,213.547 41.8832,217.547 40,225.5C 34.0297,231.337 29.0297,230.67 25,223.5C 24.477,218.88 26.3103,215.547 30.5,213.5 Z"/></g>
<g><path style="opacity:0.921" fill="#65718e" d="M 41.5,234.5 C 51.4781,235.623 53.8115,240.456 48.5,249C 40.0446,252.2 35.8779,249.367 36,240.5C 37.0209,237.65 38.8542,235.65 41.5,234.5 Z"/></g>
<g><path style="opacity:0.945" fill="#65718e" d="M 54.5,253.5 C 60.8382,252.992 64.5049,255.825 65.5,262C 64.9358,266.731 62.2691,269.231 57.5,269.5C 50.952,268.021 48.7853,264.021 51,257.5C 52.1022,256.051 53.2689,254.718 54.5,253.5 Z"/></g>
<g><path style="opacity:0.004" fill="#0000ff" d="M 245.5,269.5 C 246.833,270.167 246.833,270.167 245.5,269.5 Z"/></g>
<g><path style="opacity:0.004" fill="#0000ff" d="M 65.5,273.5 C 66.8333,274.167 66.8333,274.167 65.5,273.5 Z"/></g>
</svg>
